<svg width="200" height="200" viewBox="0 0 200 200" fill="none" xmlns="http://www.w3.org/2000/svg">
  <!-- 背景元素 -->
  <circle cx="100" cy="100" r="80" fill="#F0F8FF" />
  
  <!-- 阶梯路径 -->
  <path d="M40 160L70 130L100 160L130 130L160 160" stroke="#4B8BF4" stroke-width="3" stroke-linecap="round" stroke-linejoin="round"/>
  
  <!-- 起点标记 -->
  <circle cx="40" cy="160" r="8" fill="#CCDCFF" stroke="#4B8BF4" stroke-width="2"/>
  
  <!-- 中间点1 -->
  <circle cx="70" cy="130" r="8" fill="#CCDCFF" stroke="#4B8BF4" stroke-width="2"/>
  
  <!-- 中间点2 -->
  <circle cx="100" cy="160" r="8" fill="#CCDCFF" stroke="#4B8BF4" stroke-width="2"/>
  
  <!-- 中间点3 -->
  <circle cx="130" cy="130" r="8" fill="#CCDCFF" stroke="#4B8BF4" stroke-width="2"/>
  
  <!-- 终点标记（星） -->
  <circle cx="160" cy="160" r="12" fill="#FFD966" stroke="#4B8BF4" stroke-width="2"/>
  <path d="M160 152L162.225 157.573L168 158.135L164 162.517L164.899 168L160 165.347L155.101 168L156 162.517L152 158.135L157.775 157.573L160 152Z" fill="#FFFFFF"/>
  
  <!-- 人物图标 -->
  <circle cx="40" cy="145" r="6" fill="#4B8BF4"/>
  <path d="M32 170C32 162.268 38.268 156 46 156H48C55.732 156 62 162.268 62 170V170H32V170Z" fill="#4B8BF4"/>
  
  <!-- 旗帜 -->
  <line x1="160" y1="140" x2="160" y2="115" stroke="#4B8BF4" stroke-width="2"/>
  <path d="M160 115L180 125L160 135V115Z" fill="#FF7F7F" stroke="#4B8BF4" stroke-width="2"/>
  
  <!-- 指南针 -->
  <circle cx="100" cy="80" r="20" fill="#FFFFFF" stroke="#4B8BF4" stroke-width="2"/>
  <path d="M100 64L105 95L100 90L95 95L100 64Z" fill="#FF7F7F" stroke="#4B8BF4" stroke-width="1.5"/>
  <path d="M100 64L95 95L100 90L105 95L100 64Z" fill="#4B8BF4" stroke="#4B8BF4" stroke-width="1.5"/>
  
  <!-- 上升箭头 -->
  <path d="M140 75L158 40M158 40L173 55M158 40L143 55" stroke="#4B8BF4" stroke-width="2.5" stroke-linecap="round" stroke-linejoin="round"/>
</svg> 